<svg width="127" height="33" viewBox="0 0 127 33" fill="none" xmlns="http://www.w3.org/2000/svg">
<g clip-path="url(#clip0_219_3650)">
<path d="M47.7788 21.9277C44.2596 21.9277 41.393 19.0421 41.393 15.5C41.393 11.9579 44.2596 9.07235 47.7788 9.07235H58.939L60.7477 5.5H47.7788C42.3004 5.5 37.8438 9.98598 37.8438 15.5C37.8438 21.0141 42.3004 25.5 47.7788 25.5H57.7181V21.9277H47.7788Z" fill="#1A1A1A"/>
<path d="M76.6755 25.5H72.5762L70.701 21.928L66.2209 13.3566L61.7401 21.928L59.8655 25.5H55.7656L57.6403 21.928L66.2227 5.5L74.8027 21.928L76.678 25.5H76.6755Z" fill="#1A1A1A"/>
<path d="M92.205 11.0431V10.9287C92.205 9.92886 91.4179 9.09962 90.4688 9.09962H82.7689C81.8198 9.09962 81.0327 9.92886 81.0327 10.9287V11.0431C81.0327 12.0429 81.8198 12.872 82.7689 12.872H89.6021C91.3647 12.872 92.9366 13.671 94.0225 14.93C94.105 15.0163 94.1582 15.1005 94.2401 15.1869C95.0804 16.2731 95.5967 17.6723 95.5967 19.186C95.5967 22.6712 92.912 25.5 89.6039 25.5H83.6648C80.3566 25.5 77.6719 22.6712 77.6719 19.186H81.0619C81.0619 20.6997 82.2279 21.9284 83.6648 21.9284H89.6039C91.0407 21.9284 92.2336 20.6997 92.2336 19.186C92.2336 17.6723 91.0407 16.4436 89.6039 16.4436H82.7712C81.3876 16.4436 80.1414 15.8735 79.2192 14.93C78.9753 14.673 78.7578 14.3879 78.5695 14.0727C77.9999 13.2154 77.6736 12.1573 77.6736 11.015V10.9005C77.6736 7.92926 79.9508 5.5 82.7712 5.5H90.4711C93.2909 5.5 95.5967 7.92926 95.5967 10.9005V11.015L92.2067 11.0431H92.205Z" fill="#1A1A1A"/>
<path d="M118.502 5.5V25.5H114.946V16.3282H102.143V25.5H98.5859V5.5H102.143V12.7584H114.946V5.5H118.502Z" fill="#1A1A1A"/>
<path d="M9.3328 18.3465L7.39966 20.2847C4.99458 15.8166 5.6714 10.1233 9.43352 6.34789C12.615 3.15605 17.1683 2.18068 21.1908 3.41608C22.2105 3.72947 22.3554 4.61856 22.1777 5.09316C21.7283 6.2968 20.5547 5.93002 20.5558 5.9323C17.389 4.91265 13.7763 5.65864 11.2614 8.1828C8.52243 10.9307 7.8807 14.9854 9.3328 18.3476V18.3465ZM29.4495 15.7405C29.5163 14.9866 28.9165 14.3394 28.1615 14.3394C27.4938 14.3394 26.9358 14.8503 26.8758 15.518C26.6902 17.5879 25.8085 19.6068 24.2285 21.192C21.5257 23.9035 17.5565 24.5677 14.2324 23.1847L12.2879 25.1355C16.7224 27.4677 22.3293 26.7649 26.0564 23.0258C28.0846 20.991 29.2141 18.3987 29.4495 15.7405Z" fill="#1A1A1A"/>
<path d="M14.9119 26.1239C14.0054 25.9002 13.1203 25.5664 12.2771 25.1236L21.232 16.1329C21.7356 15.6287 22.5494 15.6287 23.053 16.1329C23.5556 16.637 23.5556 17.4546 23.053 17.9587L14.9119 26.1239ZM5.94462 21.7228C5.95142 21.716 5.95822 21.7069 5.96615 21.7001L5.96954 21.6967C6.44716 21.1914 6.44037 20.3932 5.94462 19.897C5.45116 19.4008 4.65551 19.3951 4.15073 19.8731L4.14732 19.8754C4.13942 19.8845 3.14907 20.8769 3.14907 20.8769C2.67144 21.3833 2.67937 22.1804 3.17284 22.6766C3.66745 23.1728 4.46195 23.1796 4.96674 22.7016C4.96674 22.7016 5.93672 21.7308 5.94462 21.7228ZM12.6992 28.346C12.7072 28.3381 12.7117 28.3302 12.7196 28.3222L12.723 28.3199C13.2006 27.8112 13.1927 27.0141 12.6992 26.5191C12.2047 26.0217 11.409 26.016 10.9042 26.4952L10.9008 26.4975C10.8929 26.5054 9.90256 27.499 9.90256 27.499C9.42607 28.0054 9.43286 28.8025 9.92633 29.2998C10.4209 29.7949 11.2155 29.8029 11.7203 29.3237C11.7203 29.3237 12.6902 28.3529 12.6981 28.3449L12.6992 28.346ZM7.20772 27.0811L7.21113 27.0777C7.68876 26.5724 7.68082 25.773 7.18736 25.2791C6.69276 24.7818 5.89711 24.7761 5.39344 25.2541L5.38892 25.2576L3.61763 27.0334C3.14002 27.541 3.14794 28.3381 3.64254 28.8343C4.13714 29.3305 4.93054 29.3373 5.43646 28.8581C5.43646 28.8581 7.19982 27.0902 7.20661 27.0822L7.20772 27.0811ZM2.70314 31.6003C3.17964 31.0939 3.17398 30.2968 2.67937 29.7995C2.18477 29.3044 1.39024 29.2976 0.885452 29.7768L0.882057 29.7801L0.352371 30.3104C-0.12525 30.8168 -0.117328 31.6151 0.37614 32.1113C0.87074 32.6074 1.6664 32.6143 2.17005 32.1363L2.70427 31.6014L2.70314 31.6003ZM30.4211 6.24968L31.8732 0.799392C31.8947 0.72218 31.8754 0.635886 31.8144 0.57457C31.7556 0.515525 31.6728 0.496219 31.5971 0.514386L26.1666 1.96667C26.0421 1.99959 26.0093 2.08475 25.998 2.11995C25.972 2.1983 25.9901 2.288 26.0523 2.35159L27.14 3.44165L8.04528 22.5949C7.5416 23.1001 7.54274 23.9177 8.04528 24.4207C8.54779 24.9249 9.36268 24.926 9.86636 24.4207L28.9588 5.26637L30.0431 6.35415C30.1053 6.41317 30.1913 6.43248 30.2683 6.40863C30.3034 6.39842 30.3883 6.36436 30.4234 6.24968H30.4211ZM17.7381 9.89001C18.2406 9.38587 18.2406 8.56833 17.7381 8.06302C17.2356 7.55889 16.4207 7.56003 15.9181 8.06302L6.35887 17.6567C6.59204 18.5594 6.93383 19.4382 7.3843 20.2751L17.7381 9.88886V9.89001Z" fill="#1A1A1A"/>
<g style="mix-blend-mode:multiply">
<path d="M9.31906 18.3368C8.91499 17.4011 8.67392 16.4144 8.59356 15.4141L6.35938 17.6577C6.59365 18.5593 6.93547 19.4393 7.38591 20.2762L9.31906 18.3368Z" fill="#1A1A1A"/>
</g>
<g style="mix-blend-mode:multiply">
<path d="M17.1696 23.8543C16.1612 23.7919 15.1629 23.5648 14.2168 23.1719L12.2734 25.1226C13.1166 25.5655 14.0017 25.8993 14.9083 26.123L17.1708 23.8555L17.1696 23.8543Z" fill="#1A1A1A"/>
</g>
</g>
<defs>
<clipPath id="clip0_219_3650">
<rect width="126.512" height="32" fill="white" transform="translate(0 0.5)"/>
</clipPath>
</defs>
</svg>
